#N struct 1007-matrixctrl float x float y float size float color float
state;
#N struct 1010-color float x float y float farbe;
#N struct 1010-color-display float x float y float farbe;
#N struct 1013-color float x float y float farbe;
#N struct 1013-color-display float x float y float farbe;
#N canvas 209 0 1030 658 10;
#X obj 732 68 DSP;
#X obj 727 47 tgl 15 0 empty empty empty 17 7 0 10 -262144 -1 -1 0
1;
#X obj 16 222 bng 15 250 50 0 empty empty empty 17 7 0 10 -262144 -1
-1;
#X floatatom 18 316 5 0 0 0 - - -, f 5;
#X obj 15 196 metro 250;
#X obj 15 173 tgl 15 0 empty empty empty 17 7 0 10 -262144 -1 -1 1
1;
#X obj 331 235 matrixctrl 8 4;
#X obj 16 246 counter 7;
#X obj 43 368 sel 0;
#X obj 18 340 t i i;
#X obj 41 392 counter 3;
#X floatatom 42 415 5 0 0 0 - - -, f 5;
#X obj 36 475 * 8;
#X obj 14 533 +;
#X floatatom 14 572 5 0 0 0 - - -, f 5;
#X obj 73 590 print;
#X obj 97 512 pack i i 1;
#X msg 225 334 reset;
#X obj 143 547 t l b;
#X msg 332 205 prob;
#X msg 366 205 ratchet;
#X msg 417 206 solo;
#X connect 1 0 0 0;
#X connect 2 0 7 0;
#X connect 3 0 9 0;
#X connect 4 0 2 0;
#X connect 5 0 4 0;
#X connect 7 0 3 0;
#X connect 8 0 10 0;
#X connect 9 0 13 0;
#X connect 9 0 16 0;
#X connect 9 1 8 0;
#X connect 10 0 11 0;
#X connect 11 0 12 0;
#X connect 11 0 16 1;
#X connect 12 0 13 1;
#X connect 13 0 14 0;
#X connect 16 0 15 0;
#X connect 16 0 18 0;
#X connect 17 0 6 0;
#X connect 18 0 6 0;
#X connect 18 1 17 0;
